<?xml version="1.0" encoding="utf-8"?>
<!-- Generator: Adobe Illustrator 16.0.3, SVG Export Plug-In . SVG Version: 6.00 Build 0)  -->
<!DOCTYPE svg PUBLIC "-//W3C//DTD SVG 1.1//EN" "http://www.w3.org/Graphics/SVG/1.1/DTD/svg11.dtd">
<svg version="1.1" id="Capa_1" xmlns="http://www.w3.org/2000/svg" xmlns:xlink="http://www.w3.org/1999/xlink" x="0px" y="0px"
	 width="192px" height="192px" viewBox="0 0 192 192" enable-background="new 0 0 192 192" xml:space="preserve">
<g>
	<g>
		<g>
			<path stroke="#000000" stroke-width="4" stroke-miterlimit="10" d="M24.497,25.033c-4.604,1.395-8.231,5.092-9.627,9.696
				c-0.349,1.255-0.627,3.907-0.627,6.069v3.907l2.162-2.023c1.186-1.046,2.721-2.232,3.418-2.511
				c1.046-0.419,1.256-0.768,1.256-1.954c0-2.232,1.744-4.953,3.836-6.069l1.814-0.977h69.759h69.76l1.813,0.977
				c1.256,0.697,2.163,1.604,2.861,2.86c0.977,1.813,0.977,2.162,0.977,13.533v11.719l1.256,0.488
				c0.697,0.279,2.301,1.465,3.487,2.581l2.162,2.023l-0.139-15.068l-0.14-15.068l-1.396-2.86c-1.604-3.279-3.488-5.163-6.976-6.697
				l-2.372-1.116l-70.736-0.069C36.845,24.405,26.171,24.475,24.497,25.033z"/>
			<path stroke="#000000" stroke-width="4" stroke-miterlimit="10" d="M24.497,42.194c-2.93,0.907-5.999,3.069-7.604,5.511
				c-2.86,4.255-2.721,0.977-2.581,60.272l0.139,53.715l1.046,2.163c1.396,2.86,3.837,5.162,6.836,6.627l2.372,1.116h71.992h71.992
				l2.232-1.186c2.999-1.604,5.162-3.837,6.487-6.697l1.116-2.372v-44.367V72.539l-1.187-2.232
				c-1.743-3.279-3.418-4.953-6.417-6.627l-2.721-1.465l-37.531-0.14l-37.53-0.14l-3.418-6.627
				c-4.883-9.627-7.115-12.278-11.162-13.394c-1.186-0.279-9.696-0.488-26.997-0.418C31.125,41.496,26.102,41.636,24.497,42.194z
				 M77.654,48.96c1.604,0.837,2.581,2.441,7.534,11.929l4.186,8.022h38.088c33.275,0,38.299,0.07,39.624,0.628
				c2.162,0.907,3.069,1.813,4.046,3.836c0.768,1.604,0.837,3.837,0.837,43.739v42.065l-0.977,1.884
				c-0.559,1.046-1.534,2.302-2.163,2.72c-1.186,0.907-1.255,0.907-72.341,0.907H25.404l-1.186-0.907
				c-0.628-0.488-1.604-1.395-2.093-2.022c-0.907-1.187-0.907-1.396-1.046-54.413V54.053l0.977-1.883
				c0.698-1.256,1.604-2.163,2.86-2.86l1.814-0.977h24.834C72.352,48.333,76.677,48.402,77.654,48.96z"/>
			<path stroke="#000000" stroke-width="2" stroke-miterlimit="10" d="M58.819,96.327v17.161h17.161h17.161V96.327V79.167H75.979
				H58.819V96.327z M86.234,96.327v10.255H75.979H65.655V96.327V86.072H75.91h10.255L86.234,96.327L86.234,96.327z"/>
			<path stroke="#000000" stroke-width="2" stroke-miterlimit="10" d="M99.978,96.327v17.161h17.16h17.091V96.327V79.167h-17.161
				h-17.16v17.161H99.978z M127.393,96.327v10.255h-10.255h-10.255V96.327V86.072h10.255h10.255V96.327z"/>
			<path stroke="#000000" stroke-width="2" stroke-miterlimit="10" d="M58.819,137.485v17.16h17.161h17.161v-17.16v-17.161H75.979
				H58.819V137.485z M86.234,137.485v10.255H75.979H65.655v-10.255V127.23H75.91h10.255L86.234,137.485L86.234,137.485z"/>
			<path stroke="#000000" stroke-width="2" stroke-miterlimit="10" d="M99.978,137.485v17.16h17.16h17.091v-17.16v-17.161h-17.161
				h-17.16v17.161H99.978z M127.393,137.485v10.255h-10.255h-10.255v-10.255V127.23h10.255h10.255V137.485z"/>
		</g>
	</g>
</g>
</svg>
