<?xml version="1.0" encoding="utf-8"?>
<!-- Generator: Adobe Illustrator 16.0.3, SVG Export Plug-In . SVG Version: 6.00 Build 0)  -->
<!DOCTYPE svg PUBLIC "-//W3C//DTD SVG 1.1//EN" "http://www.w3.org/Graphics/SVG/1.1/DTD/svg11.dtd">
<svg version="1.1" id="Capa_1" xmlns="http://www.w3.org/2000/svg" xmlns:xlink="http://www.w3.org/1999/xlink" x="0px" y="0px"
	 width="192px" height="192px" viewBox="0 0 192 192" enable-background="new 0 0 192 192" xml:space="preserve">
<g id="news_updates">
</g>
<g id="newspaper">
</g>
<g id="fake_news">
</g>
<g id="secret_document">
</g>
<g id="interview">
</g>
<g id="reporter">
</g>
<g id="id_card">
</g>
<g id="camera">
</g>
<g id="television">
</g>
<g id="crime_scane">
</g>
<g id="note">
</g>
<g id="recorder">
</g>
<g id="station_television">
</g>
<g id="file_storage">
</g>
<g id="news_anchor">
</g>
<g id="trending_news">
</g>
<g id="world_news">
</g>
<g id="document">
</g>
<g id="radio">
</g>
<g id="news_updates_1_">
</g>
<g id="newspaper_1_">
</g>
<g id="fake_news_1_">
</g>
<g id="secret_document_1_">
</g>
<g id="interview_1_">
</g>
<g id="reporter_1_">
</g>
<g id="id_card_1_">
</g>
<g id="camera_1_">
</g>
<g id="television_1_">
</g>
<g id="crime_scane_1_">
</g>
<g id="note_1_">
</g>
<g id="recorder_1_">
</g>
<g id="station_television_1_">
</g>
<g id="file_storage_1_">
</g>
<g id="news_anchor_1_">
</g>
<g id="trending_news_1_">
</g>
<g id="world_news_1_">
</g>
<g id="document_1_">
</g>
<g id="radio_1_">
</g>
<g id="video_recorder">
	<g>
		<path d="M14.491,72.581v85.899c0,1.071,0.714,1.786,1.786,1.786h7.144c0.357,0,0.536-0.179,0.714-0.179
			c0-0.179,0.179-0.179,0.179-0.179c0-0.179,0.178-0.179,0.178-0.179l26.788-19.645c0.357-0.356,0.714-0.893,0.714-1.429h16.073
			v10.716c0,5.893,4.822,10.715,10.715,10.715h89.292c5.893,0,10.715-4.822,10.715-10.715V81.51c0-5.894-4.822-10.715-10.715-10.715
			h-1.786V58.294c0-5.894-4.821-10.715-10.715-10.715H71.637c0-3.036-2.321-5.357-5.357-5.357H41.278
			c-3.036,0-5.357,2.321-5.357,5.357v14.287c0,3.036,2.322,5.357,5.357,5.357H66.28c3.036,0,5.357-2.321,5.357-5.357h53.576
			c1.071,0,1.785,0.715,1.785,1.786v7.144H78.781c-5.894,0-10.715,4.821-10.715,10.715v10.715H51.993
			c0-0.536-0.357-1.071-0.714-1.429L24.491,71.152c-0.178-0.179-0.178-0.179-0.357-0.179s-0.179,0-0.179,0
			c-0.179-0.178-0.357-0.178-0.536-0.178l0,0h-7.144C15.205,70.795,14.491,71.509,14.491,72.581z M68.066,49.365V60.08v1.786
			c0,1.072-0.715,1.786-1.786,1.786H41.278c-1.072,0-1.786-0.714-1.786-1.786V47.579c0-1.071,0.714-1.786,1.786-1.786H66.28
			c1.071,0,1.786,0.714,1.786,1.786V49.365z M162.716,70.795H130.57v-7.144c0-3.036-2.321-5.357-5.357-5.357H71.637V51.15h83.935
			c3.929,0,7.144,3.214,7.144,7.144V70.795z M71.637,136.871V94.01v-12.5c0-3.929,3.215-7.144,7.144-7.144h50.003h35.717h3.572
			c3.929,0,7.144,3.214,7.144,7.144v67.862c0,3.929-3.215,7.143-7.144,7.143H78.781c-3.929,0-7.144-3.214-7.144-7.143V136.871z
			 M51.993,135.085V95.796h16.073v39.289H51.993z M48.421,137.764l-23.215,16.966V76.152l23.215,16.965v0.893v42.861V137.764z
			 M18.062,74.366h3.572v82.148h-3.572V74.366z"/>
		<path d="M80.566,92.225v46.432c0,3.93,3.215,7.144,7.144,7.144h71.433c3.93,0,7.144-3.214,7.144-7.144V92.225
			c0-3.929-3.214-7.143-7.144-7.143H87.71C83.782,85.082,80.566,88.296,80.566,92.225z M84.138,92.225
			c0-1.964,1.607-3.572,3.572-3.572h71.433c1.965,0,3.572,1.607,3.572,3.572v46.432c0,1.965-1.607,3.572-3.572,3.572H87.71
			c-1.965,0-3.572-1.607-3.572-3.572V92.225z"/>
	</g>
</g>
<path d="M116.258,126.1h35.717V94.848h-35.717V126.1z M120.722,99.313h26.788v22.322h-26.788V99.313z"/>
</svg>
