<?xml version="1.0" encoding="utf-8"?>
<!-- Generator: Adobe Illustrator 16.0.3, SVG Export Plug-In . SVG Version: 6.00 Build 0)  -->
<!DOCTYPE svg PUBLIC "-//W3C//DTD SVG 1.1//EN" "http://www.w3.org/Graphics/SVG/1.1/DTD/svg11.dtd">
<svg version="1.1" id="Capa_1" xmlns="http://www.w3.org/2000/svg" xmlns:xlink="http://www.w3.org/1999/xlink" x="0px" y="0px"
	 width="192px" height="192px" viewBox="0 0 192 192" enable-background="new 0 0 192 192" xml:space="preserve">
<g id="news_updates">
</g>
<g id="newspaper">
</g>
<g id="fake_news">
</g>
<g id="secret_document">
</g>
<g id="interview">
</g>
<g id="reporter">
</g>
<g id="id_card">
</g>
<g id="camera">
</g>
<g id="television">
</g>
<g id="crime_scane">
</g>
<g id="note">
</g>
<g id="recorder">
</g>
<g id="station_television">
</g>
<g id="file_storage">
</g>
<g id="news_anchor">
</g>
<g id="trending_news">
</g>
<g id="world_news">
</g>
<g id="document">
</g>
<g id="radio">
</g>
<g id="news_updates_1_">
</g>
<g id="newspaper_1_">
</g>
<g id="fake_news_1_">
</g>
<g id="secret_document_1_">
</g>
<g id="interview_1_">
</g>
<g id="reporter_1_">
</g>
<g id="id_card_1_">
</g>
<g id="camera_1_">
</g>
<g id="television_1_">
</g>
<g id="crime_scane_1_">
</g>
<g id="note_1_">
</g>
<g id="recorder_1_">
</g>
<g id="station_television_1_">
</g>
<g id="file_storage_1_">
</g>
<g id="news_anchor_1_">
</g>
<g id="trending_news_1_">
</g>
<g id="world_news_1_">
</g>
<g id="document_1_">
</g>
<g id="radio_1_">
</g>
<g id="video_recorder">
	<g>
		<path stroke="#000000" stroke-width="5" stroke-miterlimit="10" d="M11.491,67.381v90.994c0,1.134,0.748,1.891,1.87,1.891h7.479
			c0.374,0,0.562-0.189,0.748-0.189c0-0.189,0.188-0.189,0.188-0.189c0-0.19,0.187-0.19,0.187-0.19l28.045-20.81
			c0.374-0.376,0.748-0.945,0.748-1.514h16.827v11.352c0,6.242,5.048,11.351,11.218,11.351h93.482
			c6.169,0,11.218-5.108,11.218-11.351V76.84c0-6.243-5.049-11.351-11.218-11.351h-1.87V52.247c0-6.244-5.047-11.35-11.218-11.35
			H71.319c0-3.216-2.43-5.675-5.609-5.675H39.535c-3.178,0-5.608,2.458-5.608,5.675v15.134c0,3.216,2.431,5.675,5.608,5.675H65.71
			c3.179,0,5.609-2.459,5.609-5.674h56.09c1.122,0,1.869,0.757,1.869,1.892v7.567h-50.48c-6.17,0-11.218,5.107-11.218,11.351v11.351
			H50.753c0-0.568-0.374-1.135-0.748-1.514L21.96,65.867c-0.187-0.189-0.187-0.189-0.374-0.189c-0.187,0-0.187,0-0.187,0
			c-0.188-0.189-0.374-0.189-0.562-0.189l0,0h-7.479C12.239,65.489,11.491,66.246,11.491,67.381z M67.58,42.788v11.351v1.892
			c0,1.135-0.748,1.892-1.87,1.892H39.535c-1.122,0-1.87-0.756-1.87-1.892V40.897c0-1.135,0.748-1.892,1.87-1.892H65.71
			c1.122,0,1.87,0.756,1.87,1.892V42.788z M166.673,65.489h-33.654v-7.568c0-3.216-2.431-5.674-5.609-5.674h-56.09v-7.568h87.874
			c4.113,0,7.479,3.405,7.479,7.568V65.489L166.673,65.489z M71.319,135.483V90.081V76.84c0-4.162,3.366-7.567,7.479-7.567h52.351
			h37.393h3.74c4.113,0,7.479,3.404,7.479,7.567v71.887c0,4.161-3.365,7.566-7.479,7.566H78.798c-4.113,0-7.479-3.405-7.479-7.566
			V135.483z M50.753,133.592V91.973H67.58v41.619H50.753L50.753,133.592z M47.013,136.43l-24.304,17.973V71.164l24.304,17.971v0.946
			v45.402V136.43z M15.229,69.272h3.74v87.019h-3.74V69.272z"/>
		<path stroke="#000000" stroke-width="5" stroke-miterlimit="10" d="M93.511,90.886v43.568c0,3.689,2.591,6.705,5.758,6.705h57.581
			c3.167,0,5.758-3.016,5.758-6.705V90.886c0-3.687-2.591-6.703-5.758-6.703H99.269C96.103,84.184,93.511,87.2,93.511,90.886z
			 M96.39,90.886c0-1.842,1.295-3.352,2.879-3.352h57.581c1.582,0,2.878,1.508,2.878,3.352v43.568c0,1.846-1.296,3.354-2.878,3.354
			H99.269c-1.584,0-2.879-1.508-2.879-3.354V90.886z"/>
	</g>
</g>
</svg>
