<?xml version="1.0" encoding="utf-8"?>
<!-- Generator: Adobe Illustrator 16.0.3, SVG Export Plug-In . SVG Version: 6.00 Build 0)  -->
<!DOCTYPE svg PUBLIC "-//W3C//DTD SVG 1.1//EN" "http://www.w3.org/Graphics/SVG/1.1/DTD/svg11.dtd">
<svg version="1.1" id="Capa_1" xmlns="http://www.w3.org/2000/svg" xmlns:xlink="http://www.w3.org/1999/xlink" x="0px" y="0px"
	 width="192px" height="192px" viewBox="0 0 192 192" enable-background="new 0 0 192 192" xml:space="preserve">
<path id="Path_254" stroke="#000000" stroke-miterlimit="10" d="M123.438,32c0-8.836-7.164-16-16-16H84.163c-8.836,0-16,7.164-16,16
	v96.203c0,8.836,7.164,16,16,16h23.275c8.836,0,16-7.164,16-16V32z M112.771,32v96.203c0,2.945-2.388,5.333-5.333,5.333H84.163
	c-2.945,0-5.333-2.388-5.333-5.333V32c0-2.945,2.388-5.333,5.333-5.333h23.275C110.383,26.667,112.771,29.055,112.771,32z"/>
<path id="Path_255" stroke="#000000" stroke-miterlimit="10" d="M54.2,102.325V126.4c-0.64,16.96,12.552,31.247,29.51,31.957h24.181
	c16.958-0.71,30.149-14.997,29.51-31.957v-24.075c0-2.945-2.388-5.333-5.334-5.333c-2.945,0-5.333,2.388-5.333,5.333V126.4
	c0.642,11.07-7.776,20.582-18.843,21.291H83.709c-11.067-0.709-19.484-10.221-18.843-21.291v-24.075
	c0-2.945-2.388-5.333-5.333-5.333C56.588,96.992,54.2,99.38,54.2,102.325z"/>
<path id="Path_256" stroke="#000000" stroke-miterlimit="10" d="M118.104,165.334H73.496c-2.946,0-5.333,2.388-5.333,5.333
	S70.55,176,73.496,176h44.608c2.945,0,5.333-2.388,5.333-5.333S121.05,165.334,118.104,165.334z"/>
<path id="Path_257" stroke="#000000" stroke-miterlimit="10" d="M90.467,145.239v23.622c0,3.943,2.388,7.139,5.333,7.139
	c2.946,0,5.333-3.195,5.333-7.139v-23.622c0-3.942-2.387-7.139-5.333-7.139C92.854,138.101,90.467,141.297,90.467,145.239z"/>
</svg>
