<?xml version="1.0" encoding="utf-8"?>
<!-- Generator: Adobe Illustrator 16.0.3, SVG Export Plug-In . SVG Version: 6.00 Build 0)  -->
<!DOCTYPE svg PUBLIC "-//W3C//DTD SVG 1.1//EN" "http://www.w3.org/Graphics/SVG/1.1/DTD/svg11.dtd">
<svg version="1.1" id="Capa_1" xmlns="http://www.w3.org/2000/svg" xmlns:xlink="http://www.w3.org/1999/xlink" x="0px" y="0px"
	 width="192px" height="192px" viewBox="0 0 192 192" enable-background="new 0 0 192 192" xml:space="preserve">
<g>
	<g>
		<path fill="none" stroke="#000000" stroke-width="6" stroke-linecap="round" stroke-linejoin="round" d="M35.89,128.799H11.999
			V73.495h92.353v60.742H80.421l-7.619-13.195H31.41L35.89,128.799"/>
		<path fill="none" stroke="#000000" stroke-width="6" stroke-linecap="round" stroke-linejoin="round" d="M104.352,79.555h14.236
			l8.027-13.902 M129.395,46.923l-2.891-2.892h-21.67 M85.183,51.146v7.3H61.152v15.049"/>
		
			<circle fill="none" stroke="#000000" stroke-width="6" stroke-linecap="round" stroke-linejoin="round" cx="132.398" cy="56.94" r="10.458"/>
		<path fill="none" stroke="#000000" stroke-width="6" stroke-linecap="round" stroke-linejoin="round" d="M35.89,128.799
			l6.149,10.651h26.268l6.373,11.038h45.657v-16.251h-15.984v-5.438"/>
		
			<circle fill="none" stroke="#000000" stroke-width="6" stroke-linecap="round" stroke-linejoin="round" cx="144.266" cy="125.279" r="19.039"/>
		<path fill="none" stroke="#000000" stroke-width="6" stroke-linecap="round" stroke-linejoin="round" d="M104.352,89.24h18.912
			l4.328-4.328h16.053v-2.119h37.459v46.749H162.82 M125.264,124.103h-20.912"/>
		<path fill="none" stroke="#000000" stroke-width="6" stroke-linecap="round" stroke-linejoin="round" d="M181.281,136.406V75.968"
			/>
		<path fill="none" stroke="#000000" stroke-width="6" stroke-linecap="round" stroke-linejoin="round" d="M104.834,41.402H36.32
			v13.242h8.942l2.02-3.499h57.552V41.402z"/>
		
			<circle fill="none" stroke="#000000" stroke-width="6" stroke-linecap="round" stroke-linejoin="round" cx="144.266" cy="125.279" r="10.098"/>
		<path fill="none" stroke="#000000" stroke-width="6" stroke-linecap="round" stroke-linejoin="round" d="M172.479,82.793v66.662"
			/>
	</g>
	<path fill="none" stroke="#000000" stroke-width="6" stroke-linecap="round" d="M120.336,142.363l15.553,0.012 M152.584,142.404
		l24.322-0.043"/>
	<path fill="none" stroke="#000000" stroke-width="6" stroke-linecap="round" stroke-linejoin="round" d="M53.721,89.417h31.83
		v19.671h-31.83V89.417z"/>
</g>
</svg>
