<?xml version="1.0" encoding="utf-8"?>
<!-- Generator: Adobe Illustrator 16.0.3, SVG Export Plug-In . SVG Version: 6.00 Build 0)  -->
<!DOCTYPE svg PUBLIC "-//W3C//DTD SVG 1.1//EN" "http://www.w3.org/Graphics/SVG/1.1/DTD/svg11.dtd">
<svg version="1.1" id="Layer_1" xmlns="http://www.w3.org/2000/svg" xmlns:xlink="http://www.w3.org/1999/xlink" x="0px" y="0px"
	 width="192px" height="192px" viewBox="0 0 192 192" enable-background="new 0 0 192 192" xml:space="preserve">
<path fill="none" d="M0,0h192v192H0V0z"/>
<g transform="translate(0,-280.06665)">
	<path stroke="#000000" stroke-width="8" stroke-miterlimit="10" d="M79.474,286.567c-6.621,0-12.018,5.996-12.018,13.324v19.296
		l3.426-1.809c1.871-0.978,3.971-1.512,6.195-1.512h28.846c2.229,0,4.324,0.534,6.195,1.512l3.427,1.809V299.89
		c0-7.328-5.4-13.324-12.019-13.324H79.474z M79.474,291.891h24.053c4.04,0,7.209,3.528,7.209,7.998v11.83
		c-1.589-0.465-3.098-1.178-4.813-1.178H77.077c-1.719,0-3.221,0.712-4.811,1.178v-11.83
		C72.267,295.419,75.435,291.891,79.474,291.891L79.474,291.891z M67.456,433.376v4.151v14.892c0,7.231,5.398,13.147,12.018,13.147
		h24.053c6.62,0,12.02-5.916,12.02-13.147v-19.043l-3.426,1.785c-1.873,0.968-3.969,1.514-6.197,1.514H77.077
		c-2.226,0-4.324-0.548-6.195-1.514L67.456,433.376z M72.267,440.747c1.59,0.462,3.092,1.163,4.812,1.163h28.845
		c1.717,0,3.225-0.705,4.813-1.163v11.672c0,4.413-3.169,7.896-7.205,7.896H79.474c-4.039,0-7.207-3.482-7.207-7.896V440.747z"/>
	<path stroke="#000000" stroke-width="8" stroke-miterlimit="10" d="M77.077,312.736c-10.616,0-19.243,7.109-19.243,15.878v95.336
		c0,8.769,8.626,15.877,19.243,15.877h28.846c10.618,0,19.244-7.108,19.244-15.877v-95.336c0-8.769-8.626-15.878-19.244-15.878
		H77.077L77.077,312.736z M77.077,316.709h28.846c8.036,0,14.434,5.269,14.434,11.905v95.336c0,6.636-6.397,11.92-14.434,11.92
		H77.077c-8.036,0-14.433-5.284-14.433-11.92v-95.336C62.645,321.978,69.042,316.709,77.077,316.709z"/>
	<path stroke="#000000" stroke-width="8" stroke-miterlimit="10" d="M83.825,337.234c-5.359,0-9.713,4.27-9.713,9.536v57.261
		c0,5.267,4.354,9.536,9.713,9.536h14.559c5.357,0,9.712-4.27,9.712-9.536v-57.261c0-5.266-4.354-9.536-9.712-9.536H83.825z
		 M83.825,339.619h14.559c4.056,0,7.284,3.165,7.284,7.15v57.261c0,3.986-3.229,7.158-7.284,7.158H83.825
		c-4.056,0-7.284-3.173-7.284-7.158v-57.261C76.542,342.783,79.769,339.619,83.825,339.619z"/>
</g>
</svg>
