<?xml version="1.0" encoding="utf-8"?>
<!-- Generator: Adobe Illustrator 16.0.3, SVG Export Plug-In . SVG Version: 6.00 Build 0)  -->
<!DOCTYPE svg PUBLIC "-//W3C//DTD SVG 1.1//EN" "http://www.w3.org/Graphics/SVG/1.1/DTD/svg11.dtd">
<svg version="1.1" id="Layer_1" xmlns="http://www.w3.org/2000/svg" xmlns:xlink="http://www.w3.org/1999/xlink" x="0px" y="0px"
	 width="192px" height="192px" viewBox="0 0 192 192" enable-background="new 0 0 192 192" xml:space="preserve">
<path fill="none" d="M0,0h192v192H0V0z"/>
<g transform="translate(0,-280.06665)">
	<path stroke="#000000" stroke-width="6" stroke-miterlimit="10" d="M87.337,292.567c-5.121,0-9.296,5.616-9.296,12.48v18.075
		l2.65-1.694c1.447-0.916,3.071-1.417,4.792-1.417h22.314c1.724,0,3.345,0.5,4.793,1.417l2.65,1.694v-18.075
		c0-6.864-4.177-12.48-9.297-12.48H87.337z M87.337,297.555h18.607c3.124,0,5.575,3.304,5.575,7.491v11.081
		c-1.228-0.437-2.395-1.104-3.722-1.104H85.483c-1.33,0-2.492,0.666-3.722,1.104v-11.081
		C81.762,300.859,84.213,297.555,87.337,297.555L87.337,297.555z M78.041,430.081v3.888v13.949c0,6.774,4.176,12.315,9.296,12.315
		h18.607c5.12,0,9.297-5.541,9.297-12.315v-17.837l-2.65,1.672c-1.448,0.906-3.069,1.417-4.793,1.417H85.483
		c-1.722,0-3.345-0.514-4.792-1.417L78.041,430.081z M81.762,436.985c1.23,0.433,2.392,1.09,3.722,1.09h22.314
		c1.327,0,2.494-0.66,3.722-1.09v10.934c0,4.133-2.451,7.393-5.575,7.393H87.337c-3.124,0-5.575-3.26-5.575-7.393V436.985z"/>
	<path stroke="#000000" stroke-width="6" stroke-miterlimit="10" d="M85.483,317.08c-8.212,0-14.886,6.659-14.886,14.872v89.3
		c0,8.212,6.673,14.872,14.886,14.872h22.314c8.213,0,14.886-6.66,14.886-14.872v-89.3c0-8.213-6.673-14.872-14.886-14.872H85.483z
		 M85.483,320.801h22.314c6.216,0,11.165,4.935,11.165,11.151v89.3c0,6.215-4.949,11.164-11.165,11.164H85.483
		c-6.216,0-11.165-4.949-11.165-11.164v-89.3C74.319,325.736,79.268,320.801,85.483,320.801z"/>
	<path stroke="#000000" stroke-width="6" stroke-miterlimit="10" d="M90.703,335.567c-4.145,0-7.513,4.568-7.513,10.202v61.262
		c0,5.635,3.368,10.203,7.513,10.203h11.262c4.145,0,7.513-4.568,7.513-10.203v-61.262c0-5.634-3.368-10.202-7.513-10.202H90.703z
		 M90.703,338.119h11.262c3.137,0,5.635,3.386,5.635,7.65v61.262c0,4.265-2.498,7.659-5.635,7.659H90.703
		c-3.137,0-5.634-3.395-5.634-7.659v-61.262C85.069,341.504,87.566,338.119,90.703,338.119z"/>
</g>
</svg>
