<?xml version="1.0" encoding="utf-8"?>
<!-- Generator: Adobe Illustrator 16.0.3, SVG Export Plug-In . SVG Version: 6.00 Build 0)  -->
<!DOCTYPE svg PUBLIC "-//W3C//DTD SVG 1.1//EN" "http://www.w3.org/Graphics/SVG/1.1/DTD/svg11.dtd">
<svg version="1.1" id="Capa_1" xmlns="http://www.w3.org/2000/svg" xmlns:xlink="http://www.w3.org/1999/xlink" x="0px" y="0px"
	 width="192px" height="192px" viewBox="0 0 192 192" enable-background="new 0 0 192 192" xml:space="preserve">
<g>
	<g>
		<path d="M17.9,74.657l159.61-28.144l-0.562-3.203l-4.022-22.814L13.3,48.644l0.629,3.563l3.393,19.251l0.564,3.202l0.002,0v88.087
			c0,5.854,4.79,10.646,10.646,10.646h140.796c5.854,0,10.646-4.79,10.646-10.646V74.658L17.9,74.657L17.9,74.657z M170.317,24.632
			l2.838,16.099l-18.724-13.298L170.317,24.632z M120.845,33.355l22.391,15.9l-19.249,3.394l-22.391-15.9L120.845,33.355z
			 M67.501,42.761l22.391,15.9l-19.251,3.393l-22.391-15.9L67.501,42.761z M17.459,54.682l19.088,13.384l-16.29,2.872L17.459,54.682
			z M145.124,78.276l-19.289,19.547h-19.547l19.289-19.547H145.124z M90.957,78.276L71.667,97.823H52.12l19.289-19.547H90.957z
			 M20.707,95.097V78.276h16.599L20.707,95.097z M173.779,167.646h-149.8v-64.681h149.8V167.646L173.779,167.646z M177.156,97.822
			h-16.698L177.156,81.1V97.822z"/>
	</g>
</g>
<rect x="28.459" y="114.028" width="142.559" height="5.209"/>
<rect x="28.459" y="149.309" width="142.559" height="5.209"/>
<rect x="69.595" y="117.217" width="5.208" height="33.856"/>
<rect x="121.395" y="117.217" width="5.209" height="33.856"/>
</svg>
