<?xml version="1.0" encoding="utf-8"?>
<!-- Generator: Adobe Illustrator 16.0.3, SVG Export Plug-In . SVG Version: 6.00 Build 0)  -->
<!DOCTYPE svg PUBLIC "-//W3C//DTD SVG 1.1//EN" "http://www.w3.org/Graphics/SVG/1.1/DTD/svg11.dtd">
<svg version="1.1" id="Layer_1" xmlns="http://www.w3.org/2000/svg" xmlns:xlink="http://www.w3.org/1999/xlink" x="0px" y="0px"
	 width="192px" height="192px" viewBox="0 0 192 192" enable-background="new 0 0 192 192" xml:space="preserve">
<path fill="none" d="M0,0h192v192H0V0z"/>
<g>
	<g>
		<g>
			<path d="M109.803,177.033H85.862c-7.979,0-14.299-6.318-14.299-14.298v-31.589c0-4.657,2.328-9.977,5.985-12.97l14.963-16.293
				c2.661-2.993,7.982-2.993,10.975,0l15.961,17.291c0.665,0.332,0.997,0.996,1.33,1.662c2.327,2.993,3.323,6.651,3.323,10.31
				v31.589C124.101,170.715,117.782,177.033,109.803,177.033z M98.119,111.176l-13.497,14.357c-2.011,1.723-3.446,4.595-3.446,6.894
				v27.28c0,3.446,2.87,6.318,6.318,6.318h20.677c3.446,0,6.315-2.872,6.315-6.318v-27.28c0-2.012-0.859-4.021-2.295-5.745
				c0,0,0,0,0-0.287L98.119,111.176z M84.861,10.639h23.941c7.979,0,14.299,6.317,14.299,14.298v31.589
				c0,4.656-2.326,9.977-5.985,12.97l-14.963,16.293c-2.66,2.993-7.981,2.993-10.975,0L75.216,68.497
				c-0.664-0.332-0.997-0.996-1.329-1.662c-2.327-2.993-3.324-6.651-3.324-10.309V24.937C70.563,16.956,76.881,10.639,84.861,10.639
				z M96.544,76.496l13.497-14.357c2.012-1.724,3.445-4.596,3.445-6.894v-27.28c0-3.446-2.869-6.318-6.316-6.318H86.493
				c-3.447,0-6.317,2.872-6.317,6.318v27.28c0,2.01,0.861,4.021,2.296,5.743c0,0,0,0,0,0.288L96.544,76.496z M11.135,106.307V82.366
				c0-7.979,6.317-14.299,14.298-14.299h31.589c4.656,0,9.977,2.328,12.97,5.985l16.293,14.963c2.993,2.661,2.993,7.982,0,10.975
				l-17.292,15.961c-0.332,0.665-0.996,0.997-1.662,1.33c-2.993,2.327-6.651,3.323-10.309,3.323H25.433
				C17.452,120.604,11.135,114.286,11.135,106.307z M76.692,94.621L62.477,81.259c-1.706-1.991-4.549-3.412-6.824-3.412H28.646
				c-3.412,0-6.255,2.841-6.255,6.254v20.469c0,3.413,2.843,6.254,6.255,6.254h27.008c1.99,0,3.98-0.852,5.686-2.272
				c0,0,0,0,0.285,0L76.692,94.621z M168.231,119.604h-31.588c-3.659,0-7.315-0.996-10.31-3.323c-0.665-0.333-1.33-0.665-1.662-1.33
				L107.38,98.99c-2.993-2.994-2.993-8.314,0-10.975l16.293-14.963c2.993-3.658,8.314-5.985,12.971-5.985h31.588
				c7.981,0,14.298,6.32,14.298,14.299v23.941C182.529,113.286,176.213,119.604,168.231,119.604z M131.893,107.695
				c0.287,0,0.287,0,0.287,0c1.724,1.436,3.733,2.296,5.745,2.296h27.28c3.446,0,6.318-2.869,6.318-6.316V82.998
				c0-3.447-2.872-6.317-6.318-6.317h-27.28c-2.299,0-5.17,1.436-6.895,3.447l-14.356,13.497L131.893,107.695z"/>
		</g>
	</g>
</g>
</svg>
