<?xml version="1.0" encoding="utf-8"?>
<!-- Generator: Adobe Illustrator 16.0.3, SVG Export Plug-In . SVG Version: 6.00 Build 0)  -->
<!DOCTYPE svg PUBLIC "-//W3C//DTD SVG 1.1//EN" "http://www.w3.org/Graphics/SVG/1.1/DTD/svg11.dtd">
<svg version="1.1" id="Capa_1" xmlns="http://www.w3.org/2000/svg" xmlns:xlink="http://www.w3.org/1999/xlink" x="0px" y="0px"
	 width="192px" height="192px" viewBox="0 0 192 192" enable-background="new 0 0 192 192" xml:space="preserve">
<g>
	<g>
		<path fill="none" stroke="#000000" stroke-width="8" stroke-linecap="round" stroke-linejoin="round" d="M34.163,133.874H9.5
			V76.212h95.335v63.331H80.132l-7.865-13.757H29.539L34.163,133.874"/>
		<path fill="none" stroke="#000000" stroke-width="8" stroke-linecap="round" stroke-linejoin="round" d="M104.835,82.53h14.696
			l8.288-14.495 M130.688,48.506l-2.983-3.015h-22.372 M85.048,57.91v5.733H60.24v11.821"/>
		
			<ellipse fill="none" stroke="#000000" stroke-width="8" stroke-linecap="round" stroke-linejoin="round" cx="133.787" cy="58.951" rx="10.796" ry="10.904"/>
		<path fill="none" stroke="#000000" stroke-width="8" stroke-linecap="round" stroke-linejoin="round" d="M34.163,133.874
			l6.348,11.105h27.116l6.58,11.509h47.131v-16.945h-16.5v-5.669"/>
		
			<ellipse fill="none" stroke="#000000" stroke-width="8" stroke-linecap="round" stroke-linejoin="round" cx="146.039" cy="130.205" rx="19.653" ry="19.851"/>
		<path fill="none" stroke="#000000" stroke-width="8" stroke-linecap="round" stroke-linejoin="round" d="M104.835,92.628h19.523
			l4.468-4.512h16.57v-2.209h38.669v48.742h-18.873 M126.423,128.979h-21.588"/>
		<path fill="none" stroke="#000000" stroke-width="8" stroke-linecap="round" stroke-linejoin="round" d="M184.25,141.806V78.791"
			/>
		<path fill="none" stroke="#000000" stroke-width="8" stroke-linecap="round" stroke-linejoin="round" d="M105.332,42.75H34.606
			v13.807h9.232l2.085-3.648h59.409V42.75z"/>
		
			<ellipse fill="none" stroke="#000000" stroke-width="8" stroke-linecap="round" stroke-linejoin="round" cx="146.039" cy="130.204" rx="10.424" ry="10.528"/>
		<path fill="none" stroke="#000000" stroke-width="8" stroke-linecap="round" stroke-linejoin="round" d="M175.162,85.906v69.505"
			/>
	</g>
	<path fill="none" stroke="#000000" stroke-width="8" stroke-linecap="round" d="M121.336,148.017l16.056,0.013 M154.626,148.06
		l25.108-0.045"/>
	<path fill="none" stroke="#000000" stroke-width="8" stroke-linecap="round" stroke-linejoin="round" d="M52.57,92.813h32.858
		v20.51H52.57V92.813z"/>
</g>
</svg>
