<?xml version="1.0" encoding="utf-8"?>
<!-- Generator: Adobe Illustrator 16.0.3, SVG Export Plug-In . SVG Version: 6.00 Build 0)  -->
<!DOCTYPE svg PUBLIC "-//W3C//DTD SVG 1.1//EN" "http://www.w3.org/Graphics/SVG/1.1/DTD/svg11.dtd">
<svg version="1.1" id="Layer_1" xmlns="http://www.w3.org/2000/svg" xmlns:xlink="http://www.w3.org/1999/xlink" x="0px" y="0px"
	 width="192px" height="192px" viewBox="0 0 192 192" enable-background="new 0 0 192 192" xml:space="preserve">
<path fill="none" d="M0,0h192v192H0V0z"/>
<g>
	<g>
		<g>
			<path d="M108.715,169.515H86.95c-7.254,0-12.999-5.743-12.999-12.998V127.8c0-4.233,2.116-9.07,5.441-11.791l13.603-14.812
				c2.419-2.721,7.256-2.721,9.977,0l14.511,15.72c0.604,0.302,0.906,0.906,1.208,1.511c2.115,2.721,3.022,6.046,3.022,9.372v28.717
				C121.713,163.771,115.969,169.515,108.715,169.515z M98.135,105.732l-14.208,15.113c-2.117,1.814-3.627,4.837-3.627,7.256v28.717
				c0,3.628,3.021,6.651,6.65,6.651h21.765c3.628,0,6.649-3.023,6.649-6.651v-28.717c0-2.116-0.906-4.232-2.417-6.046
				c0,0,0,0,0-0.303L98.135,105.732z M85.949,18.157h21.765c7.254,0,12.999,5.743,12.999,12.998v28.717
				c0,4.233-2.116,9.07-5.441,11.791l-13.603,14.812c-2.419,2.721-7.256,2.721-9.977,0l-14.511-15.72
				c-0.604-0.302-0.906-0.906-1.208-1.511c-2.115-2.721-3.022-6.046-3.022-9.372V31.155C72.951,23.9,78.695,18.157,85.949,18.157z
				 M96.529,81.939l14.207-15.113c2.117-1.814,3.628-4.837,3.628-7.256V30.854c0-3.628-3.021-6.651-6.65-6.651H85.949
				c-3.628,0-6.649,3.023-6.649,6.651V59.57c0,2.116,0.906,4.232,2.417,6.046c0,0,0,0,0,0.303L96.529,81.939z M18.653,105.219
				V83.454c0-7.254,5.743-12.999,12.998-12.999h28.717c4.233,0,9.07,2.116,11.791,5.441l14.812,13.603
				c2.721,2.419,2.721,7.256,0,9.977l-15.72,14.511c-0.302,0.604-0.906,0.906-1.511,1.208c-2.721,2.115-6.046,3.022-9.372,3.022
				H31.651C24.396,118.217,18.653,112.473,18.653,105.219z M82.436,94.639L67.322,80.432c-1.814-2.117-4.837-3.628-7.256-3.628
				H31.35c-3.628,0-6.651,3.021-6.651,6.65v21.765c0,3.628,3.023,6.649,6.651,6.649h28.717c2.116,0,4.232-0.906,6.046-2.417
				c0,0,0,0,0.303,0L82.436,94.639z M162.014,117.217h-28.717c-3.326,0-6.651-0.907-9.372-3.022
				c-0.604-0.302-1.209-0.604-1.511-1.208l-15.72-14.511c-2.721-2.721-2.721-7.558,0-9.977l14.812-13.603
				c2.721-3.325,7.558-5.441,11.791-5.441h28.717c7.255,0,12.998,5.745,12.998,12.999v21.765
				C175.012,111.473,169.269,117.217,162.014,117.217z M127.25,108.451c0.303,0,0.303,0,0.303,0c1.813,1.511,3.93,2.417,6.046,2.417
				h28.717c3.628,0,6.651-3.021,6.651-6.649V82.454c0-3.629-3.023-6.65-6.651-6.65h-28.717c-2.419,0-5.441,1.511-7.256,3.628
				l-15.113,14.207L127.25,108.451z"/>
		</g>
	</g>
</g>
</svg>
