<?xml version="1.0" encoding="utf-8"?>
<!-- Generator: Adobe Illustrator 16.0.3, SVG Export Plug-In . SVG Version: 6.00 Build 0)  -->
<!DOCTYPE svg PUBLIC "-//W3C//DTD SVG 1.1//EN" "http://www.w3.org/Graphics/SVG/1.1/DTD/svg11.dtd">
<svg version="1.1" id="Capa_1" xmlns="http://www.w3.org/2000/svg" xmlns:xlink="http://www.w3.org/1999/xlink" x="0px" y="0px"
	 width="192px" height="192px" viewBox="0 0 192 192" enable-background="new 0 0 192 192" xml:space="preserve">
<path stroke="#000000" stroke-width="6" stroke-miterlimit="10" d="M93,20c-0.266,0-0.52,0.105-0.707,0.293L90.586,22H83
	c-0.136,0-0.27,0.028-0.395,0.082l-14,6C68.238,28.24,68,28.601,68,29v2.762C33.168,41.355,8,68.308,8,100c0,39.702,39.477,72,88,72
	s88-32.298,88-72c0-33.837-28.689-62.26-67.203-69.93l-3.023-3.703C113.584,26.135,113.3,26,113,26h-5.668l-7.73-5.801
	C99.428,20.069,99.217,20,99,20H93z M93.414,22h5.254l7.73,5.801c0.174,0.13,0.385,0.2,0.602,0.199h5.527l3.266,3.996L114.465,34
	H107c-0.154,0-0.307,0.037-0.445,0.105L102.766,36h-5.07l-4.289-1.914c-0.204-0.09-0.432-0.109-0.648-0.055l-7.313,1.828
	l-3.551-5.41c-0.304-0.461-0.924-0.589-1.385-0.285c-0.056,0.036-0.107,0.078-0.154,0.125L74.59,36h-3.176L70,34.586V29.66
	L83.207,24H91c0.266,0,0.52-0.105,0.707-0.293L93.414,22z M80.895,32.57l3.27,4.98c0.234,0.354,0.666,0.521,1.078,0.418l7.664-1.914
	l4.172,1.859C97.206,37.971,97.344,38,97.484,38H103c0.154,0,0.307-0.037,0.445-0.105L107.234,36H115
	c0.335-0.001,0.647-0.169,0.832-0.449l0.941-1.414c29.199,6.04,52.327,24.476,60.258,47.957C161.215,75.031,134.941,66,101,66
	c-43.838,0-77.297,16.907-87.895,22.969c5.016-24.775,26.646-45.069,55.285-53.164l1.902,1.902C70.48,37.895,70.734,38,71,38h4
	c0.264,0,0.516-0.104,0.703-0.289L80.895,32.57z M101,68c34.773,0,61.406,9.576,76.824,16.648c0.41,1.434,0.767,2.885,1.063,4.352
	c-8.646-3.858-27.051-11.667-57.941-14.184c-0.322-0.032-0.642-0.084-0.965-0.102c-0.115-0.006-0.226,0-0.34-0.004
	C113.844,74.272,107.67,74,101,74c-25.254,0-47.799,5.848-64.191,11.781c-13.467,4.875-21.625,9.227-24.703,10.949
	c0.102-1.731,0.279-3.449,0.539-5.145C20.265,87.007,54.643,68,101,68z M101,76c3.604,0,7.033,0.097,10.379,0.234
	c-5.668,2.463-9.909,7.688-11.422,14.359c-1.686-6.694-6.225-11.84-12.191-14.055C92.078,76.195,96.496,76,101,76z M117.957,76.703
	c0.516-0.024,1.041-0.011,1.566,0.008c0.547,0.042,1.082,0.088,1.621,0.133c9.612,1.168,18.543,9.54,20.469,20.133
	c1.117,6.138-0.248,11.902-3.375,16.117S130.247,120,124.16,120C111.599,120,101,108.395,101,95.531
	C101,84.729,108.492,77.148,117.957,76.703z M82.043,77.359C91.513,77.796,99,85.27,99,95.902C99,108.563,88.41,120,75.84,120
	c-6.092,0-10.958-2.654-14.082-6.805s-4.486-9.822-3.371-15.863c2.008-10.887,11.646-19.427,21.738-19.965
	C80.772,77.333,81.412,77.33,82.043,77.359z M130.148,77.766c26.123,3.285,41.744,10.254,49.172,13.582
	c0.447,2.834,0.68,5.721,0.68,8.652c0,37.496-37.682,68-84,68s-84-30.504-84-68c0-0.335,0.018-0.666,0.023-1
	c3.124-1.747,11.983-6.459,25.469-11.34c8.751-3.167,19.313-6.274,31.059-8.496c-6.075,3.854-10.746,10.291-12.133,17.805
	c-1.209,6.549,0.26,12.803,3.742,17.43S69.161,122,75.84,122c11.537,0,21.305-8.684,24.203-19.586
	C103.033,113.333,112.715,122,124.16,122c6.684,0,12.203-3.023,15.684-7.715s4.945-11.029,3.738-17.668
	C142.1,88.463,136.857,81.545,130.148,77.766z M88,98c-1.104,0-2,0.896-2,2s0.896,2,2,2s2-0.896,2-2S89.104,98,88,98z M112,98
	c-1.104,0-2,0.896-2,2s0.896,2,2,2s2-0.896,2-2S113.104,98,112,98z M90.945,139.992c-0.552,0.023-0.98,0.49-0.957,1.042
	c0.016,0.341,0.201,0.649,0.496,0.821c0,0,6.925,4.145,18.516,4.145c0.553,0.008,1.006-0.434,1.014-0.986
	c0.008-0.552-0.434-1.006-0.985-1.014c-0.009,0-0.019,0-0.028,0c-11.121,0-17.484-3.855-17.484-3.855
	C91.346,140.037,91.146,139.984,90.945,139.992z M86.965,151.992c-0.553,0.012-0.99,0.469-0.979,1.021
	c0.008,0.377,0.228,0.719,0.568,0.881c0,0,1.139,0.561,3.34,1.078S95.426,156,100,156c9.148,0,15.316-2.051,15.316-2.051
	c0.524-0.175,0.808-0.741,0.633-1.266s-0.741-0.808-1.266-0.633l0,0c0,0-5.832,1.949-14.684,1.949c-4.426,0-7.596-0.49-9.645-0.973
	s-2.91-0.922-2.91-0.922C87.297,152.028,87.132,151.989,86.965,151.992z"/>
</svg>
